<svg width="19" height="19" viewBox="0 0 19 19" fill="none" xmlns="http://www.w3.org/2000/svg">
<g clip-path="url(#clip0_1_137)">
<path d="M10.95 3.73988C10.95 3.57988 10.9 3.44988 10.8 3.34988C10.7 3.24988 10.57 3.19988 10.41 3.19988H4.77003C4.61003 3.19988 4.48003 3.24988 4.38003 3.34988C4.28003 3.44988 4.23003 3.57988 4.23003 3.73988V8.23988C4.23003 8.39988 4.28003 8.53988 4.38003 8.65988C4.48003 8.77988 4.61003 8.83988 4.77003 8.83988H10.41C10.57 8.83988 10.7 8.77988 10.8 8.65988C10.9 8.53988 10.95 8.39988 10.95 8.23988V3.73988ZM9.81003 7.69988H5.31003V4.33988H9.81003V7.69988ZM17.43 4.33988L15.15 3.25988C15.03 3.17988 14.89 3.15988 14.73 3.19988C14.57 3.23988 14.46 3.32988 14.4 3.46988C14.34 3.60988 14.33 3.75988 14.37 3.91988C14.41 4.07988 14.51 4.17988 14.67 4.21988L15.51 4.69988L15.45 4.87988C15.45 5.23988 15.56 5.55988 15.78 5.83988C16 6.11988 16.27 6.31988 16.59 6.43988V13.2799C16.59 13.4399 16.53 13.5799 16.41 13.6999C16.29 13.8199 16.16 13.8799 16.02 13.8799C15.88 13.8799 15.75 13.8199 15.63 13.6999C15.51 13.5799 15.45 13.4399 15.45 13.2799V8.77988C15.45 8.13988 15.22 7.55988 14.76 7.03988C14.3 6.51988 13.79 6.19988 13.23 6.07988V2.59988C13.23 1.99988 13.01 1.47988 12.57 1.03988C12.13 0.599883 11.61 0.379883 11.01 0.379883H4.23003C3.63003 0.379883 3.10003 0.599883 2.64003 1.03988C2.18003 1.47988 1.95003 1.99988 1.95003 2.59988V15.1999L1.17003 15.6199C0.930028 15.7399 0.810028 15.8999 0.810028 16.0999V17.7799C0.810028 17.9399 0.870028 18.0799 0.990028 18.1999C1.11003 18.3199 1.25003 18.3799 1.41003 18.3799H13.77C13.93 18.3799 14.06 18.3199 14.16 18.1999C14.26 18.0799 14.31 17.9399 14.31 17.7799V16.0999C14.31 15.8999 14.21 15.7399 14.01 15.6199L13.23 15.1999V7.21988C13.51 7.33988 13.76 7.54988 13.98 7.84988C14.2 8.14988 14.31 8.45988 14.31 8.77988V13.2799C14.31 13.7599 14.48 14.1699 14.82 14.5099C15.16 14.8499 15.56 15.0199 16.02 15.0199C16.48 15.0199 16.88 14.8499 17.22 14.5099C17.56 14.1699 17.73 13.7599 17.73 13.2799V4.87988C17.73 4.63988 17.63 4.45988 17.43 4.33988ZM13.23 17.2399H1.95003V16.4599L2.79003 16.0399C2.99003 15.9599 3.09003 15.7999 3.09003 15.5599V2.59988C3.09003 2.31988 3.20003 2.06988 3.42003 1.84988C3.64003 1.62988 3.91003 1.51988 4.23003 1.51988H11.01C11.29 1.51988 11.54 1.62988 11.76 1.84988C11.98 2.06988 12.09 2.31988 12.09 2.59988V15.5599C12.09 15.7999 12.19 15.9599 12.39 16.0399L13.23 16.4599V17.2399Z" fill="#050B20"/>
</g>
<defs>
<clipPath id="clip0_1_137">
<rect width="18" height="18" fill="white" transform="matrix(1 0 0 -1 0.27002 18.3799)"/>
</clipPath>
</defs>
</svg>
