<svg width="19" height="19" viewBox="0 0 19 19" fill="none" xmlns="http://www.w3.org/2000/svg">
<g clip-path="url(#clip0_1_134)">
<path d="M18.38 10.9998C18.38 13.0398 17.78 14.8598 16.58 16.4598C16.46 16.6198 16.3 16.7098 16.1 16.7298C15.9 16.7498 15.72 16.6998 15.56 16.5798C15.4 16.4598 15.31 16.3098 15.29 16.1298C15.27 15.9498 15.32 15.7798 15.44 15.6198C16.48 14.2598 17 12.7198 17 10.9998C17 9.63985 16.66 8.37985 15.98 7.21985C15.3 6.05985 14.37 5.13985 13.19 4.45985C12.01 3.77985 10.74 3.43985 9.38 3.43985C8.02 3.43985 6.75 3.77985 5.57 4.45985C4.39 5.13985 3.46 6.05985 2.78 7.21985C2.1 8.37985 1.76 9.63985 1.76 10.9998C1.76 12.7198 2.28 14.2598 3.32 15.6198C3.44 15.7798 3.49 15.9498 3.47 16.1298C3.45 16.3098 3.36 16.4598 3.2 16.5798C3.04 16.6998 2.86 16.7498 2.66 16.7298C2.46 16.7098 2.3 16.6198 2.18 16.4598C0.980005 14.8598 0.380005 13.0398 0.380005 10.9998C0.380005 9.39985 0.780005 7.90985 1.58 6.52985C2.38 5.14985 3.47 4.05985 4.85 3.25985C6.23 2.45985 7.74 2.05985 9.38 2.05985C11.02 2.05985 12.53 2.45985 13.91 3.25985C15.29 4.05985 16.38 5.14985 17.18 6.52985C17.98 7.90985 18.38 9.39985 18.38 10.9998ZM13.82 6.79985C13.98 6.91985 14.06 7.07985 14.06 7.27985C14.06 7.47985 13.98 7.63985 13.82 7.75985L11.54 10.0998C11.74 10.4598 11.84 10.8398 11.84 11.2398C11.84 11.9198 11.6 12.4998 11.12 12.9798C10.64 13.4598 10.06 13.6998 9.38 13.6998C8.7 13.6998 8.12 13.4598 7.64 12.9798C7.16 12.4998 6.92 11.9198 6.92 11.2398C6.92 10.5598 7.16 9.97985 7.64 9.49985C8.12 9.01985 8.7 8.77985 9.38 8.77985C9.78 8.77985 10.16 8.87985 10.52 9.07985L12.86 6.79985C12.98 6.63985 13.14 6.55985 13.34 6.55985C13.54 6.55985 13.7 6.63985 13.82 6.79985ZM10.46 11.2398C10.46 10.9598 10.35 10.7198 10.13 10.5198C9.91 10.3198 9.66 10.2198 9.38 10.2198C9.10001 10.2198 8.85001 10.3198 8.63 10.5198C8.41 10.7198 8.3 10.9598 8.3 11.2398C8.3 11.5198 8.41 11.7698 8.63 11.9898C8.85001 12.2098 9.10001 12.3198 9.38 12.3198C9.66 12.3198 9.91 12.2098 10.13 11.9898C10.35 11.7698 10.46 11.5198 10.46 11.2398Z" fill="#050B20"/>
</g>
<defs>
<clipPath id="clip0_1_134">
<rect width="18" height="18" fill="white" transform="matrix(1 0 0 -1 0.380005 18.3799)"/>
</clipPath>
</defs>
</svg>
