<svg width="19" height="19" viewBox="0 0 19 19" fill="none" xmlns="http://www.w3.org/2000/svg">
<path d="M3.89004 2.05983C3.33004 2.05983 2.85004 2.25983 2.45004 2.65983C2.05004 3.05983 1.85004 3.54983 1.85004 4.12983C1.85004 4.70983 2.05004 5.19983 2.45004 5.59983C2.85004 5.99983 3.33004 6.19983 3.89004 6.19983C4.45004 6.19983 4.93004 5.99983 5.33004 5.59983C5.73004 5.19983 5.93004 4.70983 5.93004 4.12983C5.93004 3.54983 5.73004 3.05983 5.33004 2.65983C4.93004 2.25983 4.45004 2.05983 3.89004 2.05983ZM3.89004 3.19983C4.13004 3.19983 4.35004 3.28983 4.55004 3.46983C4.75004 3.64983 4.85004 3.86983 4.85004 4.12983C4.85004 4.38983 4.75004 4.60983 4.55004 4.78983C4.35004 4.96983 4.13004 5.05983 3.89004 5.05983C3.65004 5.05983 3.43004 4.96983 3.23004 4.78983C3.03004 4.60983 2.93004 4.38983 2.93004 4.12983C2.93004 3.86983 3.03004 3.64983 3.23004 3.46983C3.43004 3.28983 3.65004 3.19983 3.89004 3.19983ZM3.89004 12.5598C3.33004 12.5598 2.85004 12.7598 2.45004 13.1598C2.05004 13.5598 1.85004 14.0498 1.85004 14.6298C1.85004 15.2098 2.05004 15.6998 2.45004 16.0998C2.85004 16.4998 3.33004 16.6998 3.89004 16.6998C4.45004 16.6998 4.93004 16.4998 5.33004 16.0998C5.73004 15.6998 5.93004 15.2098 5.93004 14.6298C5.93004 14.0498 5.73004 13.5598 5.33004 13.1598C4.93004 12.7598 4.45004 12.5598 3.89004 12.5598ZM3.89004 13.6998C4.13004 13.6998 4.35004 13.7898 4.55004 13.9698C4.75004 14.1498 4.85004 14.3698 4.85004 14.6298C4.85004 14.8898 4.75004 15.1098 4.55004 15.2898C4.35004 15.4698 4.13004 15.5598 3.89004 15.5598C3.65004 15.5598 3.43004 15.4698 3.23004 15.2898C3.03004 15.1098 2.93004 14.8898 2.93004 14.6298C2.93004 14.3698 3.03004 14.1498 3.23004 13.9698C3.43004 13.7898 3.65004 13.6998 3.89004 13.6998ZM9.89004 2.05983C9.33004 2.05983 8.85004 2.25983 8.45004 2.65983C8.05004 3.05983 7.85004 3.54983 7.85004 4.12983C7.85004 4.70983 8.05004 5.19983 8.45004 5.59983C8.85004 5.99983 9.33004 6.19983 9.89004 6.19983C10.45 6.19983 10.93 5.99983 11.33 5.59983C11.73 5.19983 11.93 4.70983 11.93 4.12983C11.93 3.54983 11.73 3.05983 11.33 2.65983C10.93 2.25983 10.45 2.05983 9.89004 2.05983ZM9.89004 3.19983C10.13 3.19983 10.35 3.28983 10.55 3.46983C10.75 3.64983 10.85 3.86983 10.85 4.12983C10.85 4.38983 10.75 4.60983 10.55 4.78983C10.35 4.96983 10.13 5.05983 9.89004 5.05983C9.65004 5.05983 9.43004 4.96983 9.23004 4.78983C9.03004 4.60983 8.93004 4.38983 8.93004 4.12983C8.93004 3.86983 9.03004 3.64983 9.23004 3.46983C9.43004 3.28983 9.65004 3.19983 9.89004 3.19983ZM9.89004 12.5598C9.33004 12.5598 8.85004 12.7598 8.45004 13.1598C8.05004 13.5598 7.85004 14.0498 7.85004 14.6298C7.85004 15.2098 8.05004 15.6998 8.45004 16.0998C8.85004 16.4998 9.33004 16.6998 9.89004 16.6998C10.45 16.6998 10.93 16.4998 11.33 16.0998C11.73 15.6998 11.93 15.2098 11.93 14.6298C11.93 14.0498 11.73 13.5598 11.33 13.1598C10.93 12.7598 10.45 12.5598 9.89004 12.5598ZM9.89004 13.6998C10.13 13.6998 10.35 13.7898 10.55 13.9698C10.75 14.1498 10.85 14.3698 10.85 14.6298C10.85 14.8898 10.75 15.1098 10.55 15.2898C10.35 15.4698 10.13 15.5598 9.89004 15.5598C9.65004 15.5598 9.43004 15.4698 9.23004 15.2898C9.03004 15.1098 8.93004 14.8898 8.93004 14.6298C8.93004 14.3698 9.03004 14.1498 9.23004 13.9698C9.43004 13.7898 9.65004 13.6998 9.89004 13.6998ZM15.89 2.05983C15.33 2.05983 14.85 2.25983 14.45 2.65983C14.05 3.05983 13.85 3.54983 13.85 4.12983C13.85 4.70983 14.05 5.19983 14.45 5.59983C14.85 5.99983 15.33 6.19983 15.89 6.19983C16.45 6.19983 16.93 5.99983 17.33 5.59983C17.73 5.19983 17.93 4.70983 17.93 4.12983C17.93 3.54983 17.73 3.05983 17.33 2.65983C16.93 2.25983 16.45 2.05983 15.89 2.05983ZM15.89 3.19983C16.13 3.19983 16.35 3.28983 16.55 3.46983C16.75 3.64983 16.85 3.86983 16.85 4.12983C16.85 4.38983 16.75 4.60983 16.55 4.78983C16.35 4.96983 16.13 5.05983 15.89 5.05983C15.65 5.05983 15.43 4.96983 15.23 4.78983C15.03 4.60983 14.93 4.38983 14.93 4.12983C14.93 3.86983 15.03 3.64983 15.23 3.46983C15.43 3.28983 15.65 3.19983 15.89 3.19983ZM15.89 12.5598C15.33 12.5598 14.85 12.7598 14.45 13.1598C14.05 13.5598 13.85 14.0498 13.85 14.6298C13.85 15.2098 14.05 15.6998 14.45 16.0998C14.85 16.4998 15.33 16.6998 15.89 16.6998C16.45 16.6998 16.93 16.4998 17.33 16.0998C17.73 15.6998 17.93 15.2098 17.93 14.6298C17.93 14.0498 17.73 13.5598 17.33 13.1598C16.93 12.7598 16.45 12.5598 15.89 12.5598ZM15.89 13.6998C16.13 13.6998 16.35 13.7898 16.55 13.9698C16.75 14.1498 16.85 14.3698 16.85 14.6298C16.85 14.8898 16.75 15.1098 16.55 15.2898C16.35 15.4698 16.13 15.5598 15.89 15.5598C15.65 15.5598 15.43 15.4698 15.23 15.2898C15.03 15.1098 14.93 14.8898 14.93 14.6298C14.93 14.3698 15.03 14.1498 15.23 13.9698C15.43 13.7898 15.65 13.6998 15.89 13.6998ZM3.35004 5.59983V13.0998C3.35004 13.2598 3.40004 13.3998 3.50004 13.5198C3.60004 13.6398 3.73004 13.6998 3.89004 13.6998C4.05004 13.6998 4.18004 13.6398 4.28004 13.5198C4.38004 13.3998 4.43004 13.2798 4.43004 13.1598V5.59983C4.43004 5.47983 4.38004 5.35983 4.28004 5.23983C4.18004 5.11983 4.05004 5.05983 3.89004 5.05983C3.73004 5.05983 3.60004 5.11983 3.50004 5.23983C3.40004 5.35983 3.35004 5.47983 3.35004 5.59983ZM9.35004 5.59983V13.0998C9.35004 13.2598 9.40004 13.3998 9.50004 13.5198C9.60004 13.6398 9.73004 13.6998 9.89004 13.6998C10.05 13.6998 10.18 13.6398 10.28 13.5198C10.38 13.3998 10.43 13.2798 10.43 13.1598V5.59983C10.43 5.47983 10.38 5.35983 10.28 5.23983C10.18 5.11983 10.05 5.05983 9.89004 5.05983C9.73004 5.05983 9.60004 5.11983 9.50004 5.23983C9.40004 5.35983 9.35004 5.47983 9.35004 5.59983ZM15.35 5.59983V8.59983C15.35 8.67983 15.33 8.73983 15.29 8.77983C15.25 8.81983 15.21 8.83983 15.17 8.83983H3.89004C3.73004 8.83983 3.60004 8.88983 3.50004 8.98983C3.40004 9.08983 3.35004 9.21983 3.35004 9.37983C3.35004 9.53983 3.40004 9.66983 3.50004 9.76983C3.60004 9.86983 3.73004 9.91983 3.89004 9.91983H15.17C15.53 9.91983 15.83 9.79983 16.07 9.55983C16.31 9.31983 16.43 8.99983 16.43 8.59983V5.65983C16.43 5.49983 16.38 5.35983 16.28 5.23983C16.18 5.11983 16.05 5.05983 15.89 5.05983C15.73 5.05983 15.6 5.11983 15.5 5.23983C15.4 5.35983 15.35 5.47983 15.35 5.59983Z" fill="#050B20"/>
</svg>
